<?xml version="1.0" standalone="no"?>
<!DOCTYPE svg PUBLIC "-//W3C//DTD SVG 1.1//EN" "http://www.w3.org/Graphics/SVG/1.1/DTD/svg11.dtd" >
<svg xmlns="http://www.w3.org/2000/svg">
<metadata>Generated by IcoMoon</metadata>
<defs>
<font id="open-icon" horiz-adv-x="1024">
<font-face units-per-em="1024" ascent="960" descent="-64" />
<missing-glyph horiz-adv-x="1024" />
<glyph unicode="&#x20;" horiz-adv-x="512" d="" />
<glyph unicode="&#xe900;" horiz-adv-x="3253" d="M12.047 378.729v572.235h731.859v-481.882c0-48.188-45.176-93.365-96.376-93.365h-635.482zM105.412 441.976h484.894c45.176-3.012 54.212 18.071 57.224 33.129v412.612h-542.118v-445.741zM171.671 785.318v51.2h418.635v-51.2h-174.682v-69.271h156.612v-51.2h-156.612v-123.482h180.706v-51.2h-430.682v51.2h165.647v123.482h-144.565v51.2h144.565v69.271h-159.624z" />
<glyph unicode="&#xe901;" horiz-adv-x="3253" d="M557.176 556.424h-75.294l-21.082 78.306c-3.012 0 78.306 12.047 96.376-78.306z" />
<glyph unicode="&#xe902;" horiz-adv-x="3253" d="M1481.788 472.094v243.953h-602.353v-243.953h93.365v189.741l412.612-3.012v-189.741z" />
<glyph unicode="&#xe903;" horiz-adv-x="3253" d="M990.871 845.553h-114.447c-9.035-48.188-21.082-72.282-66.259-117.459h111.435c33.129 33.129 54.212 51.2 69.271 117.459z" />
<glyph unicode="&#xe904;" horiz-adv-x="3253" d="M990.871 881.694c-15.059 33.129-42.165 60.235-63.247 72.282h-102.4c12.047-15.059 39.153-45.176 45.176-72.282h120.471z" />
<glyph unicode="&#xe905;" horiz-adv-x="3253" d="M1418.541 881.694v-48.188c54.212-3.012 93.365 45.176 96.376 75.294v15.059h-277.082c0 0 24.094 21.082 27.106 30.118h-150.588c-6.024-48.188-51.2-84.329-102.4-84.329v-33.129c48.188-3.012 105.412 12.047 171.671 45.176h234.918z" />
<glyph unicode="&#xe906;" horiz-adv-x="3253" d="M1201.694 824.471v30.118h120.471v-30.118l90.353-30.118c15.059-3.012 27.106-6.024 36.141-6.024h42.165v-57.224h-78.306c-21.082 0-39.153 3.012-54.212 6.024l-93.365 45.176-96.376-42.165c-24.094-6.024-42.165-9.035-54.212-9.035h-78.306v57.224h42.165c15.059 0 27.106 3.012 42.165 6.024l81.318 30.118z" />
<glyph unicode="&#xe907;" horiz-adv-x="3253" d="M1382.4 454.024c-24.094 0-24.094 3.012-42.165 9.035l-90.353 72.282v84.329h-147.576v-87.341l-96.376-69.271c-15.059-6.024-33.129-9.035-51.2-9.035h-108.424v-75.294h147.576c18.071 0 39.153 0 63.247 12.047l117.459 84.329 117.459-84.329c18.071-6.024 15.059-9.035 42.165-12.047h105.412c63.247 9.035 72.282 72.282 72.282 72.282l-129.506 3.012z" />
<glyph unicode="&#xe908;" horiz-adv-x="3253" d="M2304 860.612v60.235h-298.165v12.047l-123.482 21.082v-30.118h-298.165v-60.235h111.435l30.118-54.212h-123.482v-427.671c0 0 93.365 0 93.365 84.329s0 283.106 0 283.106h129.506l-15.059-39.153c-3.012-12.047-12.047-21.082-21.082-21.082h-48.188v-60.235h69.271c33.129 0 54.212 6.024 66.259 15.059 12.047 12.047 21.082 24.094 24.094 42.165l18.071 60.235h51.2l15.059-66.259c3.012-12.047 9.035-24.094 21.082-33.129 9.035-9.035 36.141-15.059 75.294-15.059h72.282v60.235h-39.153c-12.047 0-21.082 0-27.106 3.012-3.012 3.012-9.035 9.035-12.047 18.071l-9.035 30.118h126.494v-367.435c0 0 96.376 0 96.376 84.329s0 343.341 0 343.341h-135.529l33.129 54.212h117.459zM2063.059 806.4h-240.941l-30.118 54.212h307.2l-36.141-54.212z" />
<glyph unicode="&#xe909;" horiz-adv-x="3253" d="M1755.859 402.824h313.224c45.176 0 63.247 15.059 63.247 60.235v141.553h-376.471v-201.788zM1849.224 544.376h186.729v-69.271c0-3.012-3.012-6.024-6.024-9.035s-9.035-3.012-15.059-3.012h-165.647v81.318z" />
<glyph unicode="&#xe90a;" horiz-adv-x="3253" d="M2529.882 860.612h54.212v60.235h-54.212v9.035l-96.376 27.106v-36.141h-60.235v-60.235h60.235l3.012-406.588h-63.247v-75.294h210.824v75.294h-54.212z" />
<glyph unicode="&#xe90b;" horiz-adv-x="3253" d="M2617.224 460.047c0 3.012 0 6.024 0 9.035v-9.035z" />
<glyph unicode="&#xe90c;" horiz-adv-x="3253" d="M3002.729 950.965v-30.118c-3.012 0-30.118 0-30.118 0v12.047l-102.4 24.094v-36.141h-252.988v-539.106c0 0 96.376 0 96.376 84.329v265.035h33.129v-349.365c0 0 93.365 0 93.365 84.329v325.271h-129.506v72.282h156.612v-397.553c0-51.2 21.082-84.329 81.318-84.329 0 0 27.106 0 78.306 0 54.212 0 60.235 60.235 60.235 60.235h-102.4c-15.059 0-12.047 24.094-12.047 48.188v6.024h63.247c54.212 0 54.212 33.129 51.2 78.306v213.835h-93.365v-207.812c0-12.047-6.024-24.094-18.071-24.094h-6.024v304.188h123.482v60.235l-90.353 30.118zM2617.224 460.047v9.035c0-6.024 0-6.024 0-9.035z" />
<glyph unicode="&#xe90d;" horiz-adv-x="3253" d="M286.118 225.129l-36.141-186.729h-36.141l-60.235 105.412-60.235-105.412h-36.141l-36.141 186.729h36.141l27.106-138.541 51.2 90.353h39.153l51.2-90.353 27.106 138.541h33.129z" />
<glyph unicode="&#xe90e;" horiz-adv-x="3253" d="M617.412 225.129l-36.141-186.729h-36.141l-60.235 105.412-60.235-105.412h-36.141l-36.141 186.729h36.141l27.106-138.541 51.2 90.353h39.153l51.2-90.353 27.106 138.541h33.129z" />
<glyph unicode="&#xe90f;" horiz-adv-x="3253" d="M948.706 222.118l-36.141-186.729h-36.141l-60.235 105.412-60.235-105.412h-36.141l-36.141 186.729h36.141l27.106-138.541 51.2 90.353h39.153l51.2-90.353 27.106 138.541h33.129z" />
<glyph unicode="&#xe910;" horiz-adv-x="3253" d="M1081.224 62.494c0-12.047-9.035-24.094-24.094-24.094-12.047 0-24.094 12.047-24.094 24.094s9.035 24.094 24.094 24.094c15.059 0 24.094-12.047 24.094-24.094z" />
<glyph unicode="&#xe911;" horiz-adv-x="3253" d="M1364.329 228.141v-195.765c0-27.106-9.035-51.2-30.118-69.271-18.071-18.071-42.165-27.106-69.271-27.106-18.071 0-36.141 6.024-51.2 15.059-6.024 3.012-12.047 9.035-18.071 12.047l27.106 24.094c12.047-9.035 27.106-15.059 42.165-18.071 33.129 0 63.247 30.118 63.247 63.247v30.118c-18.071-15.059-39.153-27.106-63.247-27.106-27.106 0-51.2 9.035-69.271 27.106s-27.106 42.165-27.106 69.271c0 27.106 9.035 51.2 27.106 69.271s42.165 27.106 69.271 27.106c24.094 0 45.176-12.047 63.247-27.106v21.082h36.141zM1328.188 134.776c0 33.129-27.106 63.247-63.247 63.247s-63.247-27.106-63.247-63.247 27.106-63.247 63.247-63.247c36.141 0 63.247 30.118 63.247 63.247z" />
<glyph unicode="&#xe912;" horiz-adv-x="3253" d="M1569.129 222.118v-33.129l-96.376-117.459h99.388v-33.129h-144.565v33.129l96.376 117.459h-99.388v33.129h144.565z" />
<glyph unicode="&#xe913;" horiz-adv-x="3253" d="M1816.094 134.776v-99.388h-36.141v99.388c0 30.118-24.094 57.224-54.212 57.224s-54.212-24.094-54.212-57.224v-99.388h-36.141v186.729h36.141v-18.071c15.059 12.047 36.141 21.082 54.212 21.082 24.094 0 48.188-9.035 63.247-27.106 18.071-15.059 27.106-39.153 27.106-63.247z" />
<glyph unicode="&#xe914;" horiz-adv-x="3253" d="M2072.094 128.753c0-27.106-9.035-51.2-30.118-69.271-18.071-18.071-42.165-27.106-69.271-27.106-24.094 0-45.176 12.047-63.247 27.106v-21.082h-36.141v298.165h36.141v-132.518c18.071 15.059 39.153 27.106 63.247 27.106 27.106 0 51.2-9.035 69.271-27.106 18.071-24.094 30.118-48.188 30.118-75.294zM2035.953 128.753c0 33.129-27.106 63.247-63.247 63.247-33.129 0-63.247-27.106-63.247-63.247s27.106-63.247 63.247-63.247c36.141 0 63.247 30.118 63.247 63.247z" />
<glyph unicode="&#xe915;" horiz-adv-x="3253" d="M2201.6 56.471c0-12.047-9.035-24.094-24.094-24.094-12.047 0-24.094 12.047-24.094 24.094s9.035 24.094 24.094 24.094c12.047 0 24.094-9.035 24.094-24.094z" />
<glyph unicode="&#xe916;" horiz-adv-x="3253" d="M2454.588 80.565c-3.012-3.012-6.024-9.035-9.035-12.047-18.071-18.071-42.165-27.106-66.259-27.106s-51.2 9.035-69.271 27.106c-18.071 18.071-27.106 42.165-27.106 69.271s9.035 48.188 27.106 69.271c18.071 18.071 42.165 27.106 69.271 27.106s48.188-9.035 66.259-27.106c3.012-3.012 6.024-6.024 9.035-12.047l-27.106-21.082c-12.047 15.059-30.118 24.094-48.188 24.094-33.129 0-60.235-27.106-60.235-63.247s27.106-63.247 60.235-63.247c21.082 0 39.153 9.035 48.188 27.106l27.106-18.071z" />
<glyph unicode="&#xe917;" horiz-adv-x="3253" d="M2704.565 134.776c0-24.094-9.035-48.188-27.106-69.271-18.071-18.071-42.165-27.106-66.259-27.106s-48.188 9.035-69.271 27.106c-18.071 18.071-27.106 42.165-27.106 69.271s9.035 48.188 27.106 69.271c18.071 18.071 42.165 27.106 69.271 27.106s48.188-9.035 66.259-27.106c18.071-21.082 27.106-45.176 27.106-69.271zM2671.435 134.776c0 33.129-27.106 60.235-60.235 60.235s-60.235-27.106-60.235-60.235 27.106-60.235 60.235-60.235c33.129-3.012 60.235 24.094 60.235 60.235z" />
<glyph unicode="&#xe918;" horiz-adv-x="3253" d="M3087.059 140.8v-99.388h-33.129v99.388c0 30.118-24.094 54.212-54.212 54.212s-54.212-24.094-54.212-54.212v-99.388h-33.129v99.388c0 30.118-24.094 54.212-54.212 54.212s-54.212-24.094-54.212-54.212v-99.388h-33.129v183.718h33.129v-18.071c15.059 12.047 33.129 21.082 54.212 21.082 24.094 0 45.176-9.035 63.247-27.106 3.012-3.012 6.024-6.024 9.035-9.035 3.012 3.012 6.024 6.024 9.035 9.035 18.071 18.071 39.153 27.106 63.247 27.106s45.176-9.035 63.247-24.094c12.047-18.071 21.082-39.153 21.082-63.247z" />
</font>
</defs>
</svg>
