<?xml version="1.0" encoding="utf-8"?>
<!-- Generator: Adobe Illustrator 19.0.0, SVG Export Plug-In . SVG Version: 6.00 Build 0)  -->
<svg version="1.1" id="图层_1" xmlns="http://www.w3.org/2000/svg" xmlns:xlink="http://www.w3.org/1999/xlink" x="0px" y="0px"
	 viewBox="0 1 108 34" style="enable-background:new 0 1 108 34;" width="108" height="34" xml:space="preserve">
<style type="text/css">
	.st0{fill:#FF4539;}
	.st1{fill:#3C3C3D;}
</style>
<g id="XMLID_1_">
	<g id="XMLID_10346_">
		<g id="XMLID_10347_">
			<g id="XMLID_10351_">
				<path id="XMLID_10372_" class="st0" d="M0.4,20.3l0-19l24.3,0l0,16c0,1.6-1.5,3.1-3.2,3.1H0.4z M3.5,18.2h16.1
					c1.5,0.1,1.8-0.6,1.9-1.1V3.4H3.5V18.2z M5.7,6.8V5.1h13.9v1.7h-5.8v2.3H19v1.7h-5.2v4.1h6v1.7H5.5v-1.7H11v-4.1H6.2V9.1H11V6.8
					H5.7z"/>
				<path id="XMLID_10371_" class="st0" d="M18.5,14.4h-2.5l-0.7-2.6C15.2,11.8,17.9,11.4,18.5,14.4z"/>
				<g id="XMLID_10362_">
					<g id="XMLID_10365_">
						<polygon id="XMLID_10370_" class="st0" points="49.2,17.2 49.2,9.1 29.2,9.1 29.2,17.2 32.3,17.2 32.3,10.9 46,11 46,17.3 
													"/>
						<path id="XMLID_10369_" class="st0" d="M32.9,4.8l-3.8,0c-0.3,1.6-0.7,2.4-2.2,3.9l3.7,0C31.7,7.6,32.4,7,32.9,4.8z"/>
						<path id="XMLID_10368_" class="st0" d="M32.9,3.6c-0.5-1.1-1.4-2-2.1-2.4l-3.4,0c0.4,0.5,1.3,1.5,1.5,2.4L32.9,3.6z"/>
						<path id="XMLID_10367_" class="st0" d="M47.1,3.6l0,1.6c1.8,0.1,3.1-1.5,3.2-2.5V2.2l-9.2,0c0,0,0.8-0.7,0.9-1h-5
							C36.8,2.8,35.3,4,33.6,4l0,1.1c1.6,0.1,3.5-0.4,5.7-1.5H47.1z"/>
						<path id="XMLID_10366_" class="st0" d="M39.9,5.5v-1h4v1l3,1c0.5,0.1,0.9,0.2,1.2,0.2h1.4v1.9h-2.6c-0.7,0-1.3-0.1-1.8-0.2
							L42,6.9l-3.2,1.4C38,8.5,37.4,8.6,37,8.6h-2.6V6.7h1.4c0.5,0,0.9-0.1,1.4-0.2L39.9,5.5z"/>
					</g>
					<g id="XMLID_10363_">
						<path id="XMLID_10364_" class="st0" d="M45.9,17.8c-0.8,0-0.8-0.1-1.4-0.3l-3-2.4v-2.8h-4.9v2.9l-3.2,2.3
							c-0.5,0.2-1.1,0.3-1.7,0.3h-3.6v2.5h4.9c0.6,0,1.3,0,2.1-0.4l3.9-2.8l3.9,2.8c0.6,0.2,0.5,0.3,1.4,0.4l3.5,0
							c2.1-0.3,2.4-2.4,2.4-2.4L45.9,17.8z"/>
					</g>
				</g>
				<g id="XMLID_10355_">
					<path id="XMLID_10359_" class="st0" d="M76.5,4.3v-2l-9.9,0l0-0.4l-4.1-0.7v1l-9.9,0v2h3.7l1,1.8h-4.1v14.2c0,0,3.1,0,3.1-2.8
						s0-9.4,0-9.4l4.3,0l-0.5,1.3c-0.1,0.4-0.4,0.7-0.7,0.7h-1.6v2h2.3c1.1,0,1.8-0.2,2.2-0.5c0.4-0.4,0.7-0.8,0.8-1.4l0.6-2h1.7
						l0.5,2.2c0.1,0.4,0.3,0.8,0.7,1.1c0.3,0.3,1.2,0.5,2.5,0.5h2.4v-2h-1.3c-0.4,0-0.7,0-0.9-0.1c-0.1-0.1-0.3-0.3-0.4-0.6l-0.3-1
						l4.2,0l0,12.2l0-7.2l0,7.2c0,0,3.2,0,3.2-2.8s0-11.4,0-11.4h-4.5l1.1-1.8H76.5z M68.5,6.1h-8l-1-1.8h10.2L68.5,6.1z"/>
					<path id="XMLID_10356_" class="st0" d="M58.3,19.5h10.4c1.5,0,2.1-0.5,2.1-2v-4.7H58.3V19.5z M61.4,14.8h6.2v2.3
						c0,0.1-0.1,0.2-0.2,0.3c-0.1,0.1-0.3,0.1-0.5,0.1h-5.5V14.8z"/>
				</g>
				<g id="XMLID_10352_">
					<polygon id="XMLID_10354_" class="st0" points="84,4.3 85.8,4.3 85.8,2.3 84,2.3 84,2 80.8,1.1 80.8,2.3 78.8,2.3 78.8,4.3 
						80.8,4.3 80.9,17.8 78.8,17.8 78.8,20.3 85.8,20.3 85.8,17.8 84,17.8 					"/>
					<path id="XMLID_10353_" class="st0" d="M86.9,17.6c0-0.1,0-0.2,0-0.3V17.6z"/>
				</g>
			</g>
			<path id="XMLID_10348_" class="st0" d="M99.7,1.3l0,1c-0.1,0-1,0-1,0V1.9l-3.4-0.8l0,1.2h-8.4l0,17.9c0,0,3.2,0,3.2-2.8l0-8.8
				h1.1l0,5.2l0,6.4c0,0,3.1,0,3.1-2.8l0-10.8l-4.3,0l0-2.4h5.2v13.2c0,1.7,0.7,2.8,2.7,2.8c0,0,0.9,0,2.6,0c1.8,0,2-2,2-2h-3.4
				c-0.5,0-0.4-0.8-0.4-1.6v-0.2h2.1c1.8,0,1.8-1.1,1.7-2.6l0-7.1l-3.1,0l0,6.9c0,0.4-0.2,0.8-0.6,0.8h-0.2l0-10.1h4.1v-2L99.7,1.3z
				 M86.9,17.6v-0.3C86.9,17.5,86.9,17.5,86.9,17.6z"/>
		</g>
	</g>
	<path id="XMLID_10344_" class="st1" d="M9.5,25.4l-1.2,6.2H7.1l-2-3.5l-2,3.5H1.9l-1.2-6.2h1.2L2.8,30l1.7-3h1.3l1.7,3l0.9-4.6H9.5
		z"/>
	<path id="XMLID_10342_" class="st1" d="M20.5,25.4l-1.2,6.2h-1.2l-2-3.5l-2,3.5h-1.2l-1.2-6.2h1.2l0.9,4.6l1.7-3h1.3l1.7,3l0.9-4.6
		H20.5z"/>
	<path id="XMLID_10340_" class="st1" d="M31.5,25.5l-1.2,6.2h-1.2l-2-3.5l-2,3.5h-1.2l-1.2-6.2h1.2l0.9,4.6l1.7-3h1.3l1.7,3l0.9-4.6
		H31.5z"/>
	<path id="XMLID_10338_" class="st1" d="M35.9,30.8c0,0.4-0.3,0.8-0.8,0.8c-0.4,0-0.8-0.4-0.8-0.8c0-0.4,0.3-0.8,0.8-0.8
		C35.6,30,35.9,30.4,35.9,30.8z"/>
	<path id="XMLID_10335_" class="st1" d="M45.3,25.3v6.5c0,0.9-0.3,1.7-1,2.3C43.7,34.7,42.9,35,42,35c-0.6,0-1.2-0.2-1.7-0.5
		c-0.2-0.1-0.4-0.3-0.6-0.4l0.9-0.8c0.4,0.3,0.9,0.5,1.4,0.6c1.1,0,2.1-1,2.1-2.1v-1c-0.6,0.5-1.3,0.9-2.1,0.9
		c-0.9,0-1.7-0.3-2.3-0.9c-0.6-0.6-0.9-1.4-0.9-2.3c0-0.9,0.3-1.7,0.9-2.3c0.6-0.6,1.4-0.9,2.3-0.9c0.8,0,1.5,0.4,2.1,0.9v-0.7H45.3
		z M44.1,28.4c0-1.1-0.9-2.1-2.1-2.1c-1.2,0-2.1,0.9-2.1,2.1s0.9,2.1,2.1,2.1C43.2,30.5,44.1,29.5,44.1,28.4z"/>
	<path id="XMLID_10333_" class="st1" d="M52.1,25.5v1.1l-3.2,3.9h3.3v1.1h-4.8v-1.1l3.2-3.9h-3.3v-1.1H52.1z"/>
	<path id="XMLID_10331_" class="st1" d="M60.3,28.4v3.3h-1.2v-3.3c0-1-0.8-1.9-1.8-1.9c-1,0-1.8,0.8-1.8,1.9v3.3h-1.2v-6.2h1.2v0.6
		c0.5-0.4,1.2-0.7,1.8-0.7c0.8,0,1.6,0.3,2.1,0.9C60,26.8,60.3,27.6,60.3,28.4z"/>
	<path id="XMLID_10328_" class="st1" d="M68.8,28.6c0,0.9-0.3,1.7-1,2.3c-0.6,0.6-1.4,0.9-2.3,0.9c-0.8,0-1.5-0.4-2.1-0.9v0.7h-1.2
		v-9.9h1.2v4.4c0.6-0.5,1.3-0.9,2.1-0.9c0.9,0,1.7,0.3,2.3,0.9C68.4,26.9,68.8,27.7,68.8,28.6z M67.6,28.6c0-1.1-0.9-2.1-2.1-2.1
		c-1.1,0-2.1,0.9-2.1,2.1s0.9,2.1,2.1,2.1C66.7,30.7,67.6,29.7,67.6,28.6z"/>
	<path id="XMLID_10326_" class="st1" d="M73.1,31c0,0.4-0.3,0.8-0.8,0.8c-0.4,0-0.8-0.4-0.8-0.8s0.3-0.8,0.8-0.8
		C72.7,30.2,73.1,30.5,73.1,31z"/>
	<path id="XMLID_64_" class="st1" d="M81.5,30.2c-0.1,0.1-0.2,0.3-0.3,0.4c-0.6,0.6-1.4,0.9-2.2,0.9s-1.7-0.3-2.3-0.9
		c-0.6-0.6-0.9-1.4-0.9-2.3s0.3-1.6,0.9-2.3c0.6-0.6,1.4-0.9,2.3-0.9s1.6,0.3,2.2,0.9c0.1,0.1,0.2,0.2,0.3,0.4l-0.9,0.7
		c-0.4-0.5-1-0.8-1.6-0.8c-1.1,0-2,0.9-2,2.1s0.9,2.1,2,2.1c0.7,0,1.3-0.3,1.6-0.9L81.5,30.2z"/>
	<path id="XMLID_61_" class="st1" d="M89.8,28.4c0,0.8-0.3,1.6-0.9,2.3c-0.6,0.6-1.4,0.9-2.2,0.9s-1.6-0.3-2.3-0.9
		c-0.6-0.6-0.9-1.4-0.9-2.3s0.3-1.6,0.9-2.3c0.6-0.6,1.4-0.9,2.3-0.9s1.6,0.3,2.2,0.9C89.5,26.8,89.8,27.6,89.8,28.4z M88.7,28.4
		c0-1.1-0.9-2-2-2c-1.1,0-2,0.9-2,2s0.9,2,2,2C87.8,30.5,88.7,29.6,88.7,28.4z"/>
	<path id="XMLID_59_" class="st1" d="M102.5,28.2v3.3h-1.1v-3.3c0-1-0.8-1.8-1.8-1.8c-1,0-1.8,0.8-1.8,1.8v3.3h-1.1v-3.3
		c0-1-0.8-1.8-1.8-1.8c-1,0-1.8,0.8-1.8,1.8v3.3h-1.1v-6.1h1.1V26c0.5-0.4,1.1-0.7,1.8-0.7c0.8,0,1.5,0.3,2.1,0.9
		c0.1,0.1,0.2,0.2,0.3,0.3c0.1-0.1,0.2-0.2,0.3-0.3c0.6-0.6,1.3-0.9,2.1-0.9c0.8,0,1.5,0.3,2.1,0.8
		C102.2,26.7,102.5,27.4,102.5,28.2z"/>
</g>
</svg>
